<svg xmlns="http://www.w3.org/2000/svg" width="20" height="16.313" viewBox="0 0 20 16.313"><defs><style>.a{fill:rgba(0,0,0,0);}</style></defs><g transform="translate(0.833 0.648)"><path class="a" d="M20.909,2.727a9.9,9.9,0,0,1-2.854,1.391,4.073,4.073,0,0,0-7.146,2.727v.91A9.691,9.691,0,0,1,2.727,3.636S-.909,11.818,7.273,15.455A10.59,10.59,0,0,1,.909,17.273c8.182,4.545,18.182,0,18.182-10.455a4.056,4.056,0,0,0-.073-.754A7.017,7.017,0,0,0,20.909,2.727Z" transform="translate(-1.742 -3.365)"/></g></svg>